<?xml version="1.0" standalone="no"?><!DOCTYPE svg PUBLIC "-//W3C//DTD SVG 1.1//EN" "http://www.w3.org/Graphics/SVG/1.1/DTD/svg11.dtd"><svg class="icon" style="width: 5em; height: 5em;vertical-align: middle;fill: currentColor;overflow: hidden;" viewBox="0 0 128 128" version="1.1" xmlns="http://www.w3.org/2000/svg"><path d="M0 0h1024v1024H0z" fill="#FFFFFF" /><path d="M512.32 80.768c112.256 86.08 216.512 124.352 373.952 124.864v323.264c0 169.344-208.96 427.456-374.016 427.456-59.584 0-124.992-30.784-187.904-86.528l-42.496 47.936c73.6 65.28 153.088 102.656 230.4 102.656 203.712 0 438.016-289.408 438.016-491.456V141.696H889.6c-145.536 0-237.184-33.664-340.288-113.152L531.712 15.04 512.192 0.128l-36.928 28.416C372.352 108.032 280.576 141.696 134.4 141.696h-60.672v387.264c0 62.848 25.856 140.992 70.4 218.048-0.768-1.28 13.888 24.32 17.344 30.016l3.776 6.016c6.4 9.984 13.44 19.584 24.64 33.408l49.792-40.192a317.44 317.44 0 0 1-20.544-27.712l-2.944-4.736a2540.352 2540.352 0 0 1-16.64-28.864c-39.424-68.096-61.824-135.936-61.824-186.048v-323.2c158.016-0.512 262.4-38.784 374.592-124.928z" fill="#333434" /><path d="M287.872 457.152l-43.712 46.72 238.656 223.744 300.224-378.432-50.112-39.808-257.088 324.032z" fill="#333333" /></svg>